<svg width="26" height="25" viewBox="0 0 26 25" fill="none" xmlns="http://www.w3.org/2000/svg">
<path d="M10.0893 2.10395C11.0008 -0.701321 14.9695 -0.70132 15.881 2.10395L16.859 5.11386C17.2666 6.36841 18.4357 7.2178 19.7548 7.2178H22.9196C25.8692 7.2178 27.0956 10.9923 24.7093 12.726L22.149 14.5862C21.0818 15.3616 20.6352 16.736 21.0428 17.9905L22.0208 21.0004C22.9323 23.8057 19.7216 26.1384 17.3353 24.4047L14.7749 22.5444C13.7077 21.7691 12.2626 21.7691 11.1954 22.5444L8.63504 24.4047C6.24874 26.1384 3.03799 23.8057 3.94948 21.0004L4.92746 17.9905C5.33509 16.736 4.88853 15.3616 3.82135 14.5862L1.26097 12.726C-1.12534 10.9923 0.101062 7.2178 3.05069 7.2178H6.2155C7.53461 7.2178 8.70371 6.36841 9.11134 5.11385L10.0893 2.10395Z" fill="url(#paint0_linear_24_48)"/>
<defs>
<linearGradient id="paint0_linear_24_48" x1="12.9852" y1="-6.80853" x2="12.9852" y2="33.7897" gradientUnits="userSpaceOnUse">
<stop offset="0.0288462" stop-color="#816F13"/>
<stop offset="0.216346" stop-color="#E8C722"/>
<stop offset="0.639423" stop-color="#E9C61A"/>
<stop offset="1" stop-color="#816F13"/>
</linearGradient>
</defs>
</svg>
